<svg role="img" viewBox="0 0 24 24" xmlns="http://www.w3.org/2000/svg" id="Wii--Streamline-Simple-Icons" height="24" width="24">
  <desc>
    Wii Streamline Icon: https://streamlinehq.com
  </desc>
  <title>Wii</title>
  <path d="M17.904 6.261c-0.729 -0.014 -1.33 0.565 -1.344 1.293v0.018c0.012 0.732 0.612 1.315 1.344 1.305 0.783 0 1.404 -0.579 1.404 -1.305 0.001 -0.732 -0.62 -1.311 -1.404 -1.311zm4.71 0c-0.747 0 -1.36 0.58 -1.36 1.311 0 0.711 0.613 1.305 1.361 1.305 0.767 0 1.385 -0.579 1.385 -1.305 0 -0.732 -0.618 -1.311 -1.386 -1.311zm-14.84 0.543c-0.748 0 -1.252 0.374 -1.514 1.215 -0.242 0.857 -1.794 6.822 -1.794 6.822L2.43 6.897H0s2.334 8.464 2.652 9.456c0.241 0.765 0.84 1.386 1.7 1.386 1.009 0 1.479 -0.732 1.684 -1.386 0.225 -0.676 1.738 -6.261 1.738 -6.261s1.515 5.589 1.719 6.261c0.225 0.653 0.69 1.386 1.682 1.386 0.879 0 1.456 -0.621 1.72 -1.386 0.315 -0.99 2.657 -9.456 2.657 -9.456h-2.45l-2.021 7.944s-1.55 -5.965 -1.812 -6.822c-0.242 -0.844 -0.77 -1.215 -1.495 -1.215zm9.008 3.363v7.495h2.322v-7.495h-2.322zm4.693 0v7.495h2.317v-7.495h-2.317z" fill="#34beed" stroke-width="1"></path>
</svg>