<?xml version="1.0"?>
<svg
  xmlns="http://www.w3.org/2000/svg"
  viewBox="0 0 30 30"
  width="240px"
  height="240px"
>
  <path
    d="
      M24 4
      H6
      C4.895 4 4 4.895 4 6
      v18
      c0 1.105 0.895 2 2 2
      h18
      c1.105 0 2 -0.895 2 -2
      V6
      C26 4.895 25.105 4 24 4
      z

      M10.954 22
      h-2.95
      v-9.492
      h2.95
      V22
      z

      M9.449 11.151
      c-0.951 0 -1.72 -0.771 -1.72 -1.72
      c0 -0.949 0.77 -1.719 1.72 -1.719
      c0.948 0 1.719 0.771 1.719 1.719
      C11.168 10.38 10.397 11.151 9.449 11.151
      z

      M22.004 22
      h-2.948
      v-4.616
      c0 -1.101 -0.02 -2.517 -1.533 -2.517
      c-1.535 0 -1.771 1.199 -1.771 2.437
      V22
      h-2.948
      v-9.492
      h2.83
      v1.297
      h0.04
      c0.394 -0.746 1.356 -1.533 2.791 -1.533
      c2.987 0 3.539 1.966 3.539 4.522
      V22
      z
    "
    fill="#f3f2f0"
  />
</svg>
