<svg
  id="Layer_1"
  data-name="Layer 1"
  xmlns="http://www.w3.org/2000/svg"
  viewBox="0 0 192 192"
>
  <defs>
    <style>
      .cls-1 {
        fill: #dabc45;
      }

      .cls-2 {
        fill: #7bb677;
      }
    </style>
  </defs>

  <!-- Outer frame -->
  <path
    d="
      M172.94 0
      H19.06
      A19.08 19.08 0 0 0 0 19.06
      V172.94
      A19.08 19.08 0 0 0 19.06 192
      H172.94
      A19.08 19.08 0 0 0 192 172.94
      V19.06
      A19.08 19.08 0 0 0 172.94 0
      Z

      m8.95 19.06
      V60.63
      H131.37
      V10.11
      h41.57
      a9 9 0 0 1 8.95 8.95
      Z

      M70.74 121.26
      V70.74
      h50.52
      v50.52
      Z

      m50.52 10.11
      v50.52
      H70.74
      V131.37
      Z

      M60.63 121.26
      H10.11
      V70.74
      H60.63
      Z

      M70.74 60.63
      V10.11
      h50.52
      V60.63
      Z

      m60.63 10.11
      h50.52
      v50.52
      H131.37
      Z

      M19.06 10.11
      H60.63
      V60.63
      H10.11
      V19.06
      a9 9 0 0 1 8.95 -8.95
      Z

      M10.11 172.94
      V131.37
      H60.63
      v50.52
      H19.06
      a9 9 0 0 1 -8.95 -8.95
      Z

      m162.83 8.95
      H131.37
      V131.37
      h50.52
      v41.57
      a9 9 0 0 1 -8.95 8.95
      Z
    "
  />

  <!-- Colored squares -->
  <rect class="cls-1" x="70.74" y="70.74" width="50.52" height="50.52" />
  <rect class="cls-2" x="131.37" y="70.74" width="50.52" height="50.52" />
  <rect class="cls-2" x="70.74" y="131.37" width="50.52" height="50.52" />

  <!-- Bottom green blocks -->
  <path
    class="cls-2"
    d="
      M10.11 172.94
      V131.37
      H60.63
      v50.52
      H19.06
      a9 9 0 0 1 -8.95 -8.95
      Z
    "
  />
  <path
    class="cls-2"
    d="
      M172.94 181.89
      H131.37
      V131.37
      h50.52
      v41.57
      a9 9 0 0 1 -8.95 8.95
      Z
    "
  />
</svg>
