<svg
  xmlns="http://www.w3.org/2000/svg"
  viewBox="0 0 502 210.649"
  width="502"
  height="210.65"
>
  <g>
    <!-- Red background shape -->
    <path
      d="
        M498.333 45.7
        s-2.91 -20.443 -11.846 -29.447
        C475.157 4.44 462.452 4.38 456.627 3.687
        c-41.7 -3 -104.25 -3 -104.25 -3
        h-.13
        s-62.555 0 -104.255 3
        c-5.826.693 -18.523.753 -29.86 12.566
        -8.933 9.004 -11.84 29.447 -11.84 29.447
        s-2.983 24.003 -2.983 48.009
        v22.507
        c0 24.006 2.983 48.013 2.983 48.013
        s2.907 20.44 11.84 29.446
        c11.337 11.817 26.23 11.44 32.86 12.677
        23.84 2.28 101.315 2.983 101.315 2.983
        s62.62 -.094 104.32 -3.093
        c5.824 -.694 18.527 -.75 29.857 -12.567
        8.936 -9.006 11.846 -29.446 11.846 -29.446
        s2.98 -24.007 2.98 -48.013
        V93.709
        c0 -24.006 -2.98 -48.01 -2.98 -48.01
      "
      fill="#cd201f"
    />

    <!-- Black shapes (left text/logo) -->
    <g>
      <path
        d="
          M187.934 169.537
          h-18.96
          V158.56
          c-7.19 8.24 -13.284 12.4 -19.927 12.4
          -5.826 0 -9.876 -2.747 -11.9 -7.717
          -1.23 -3.02 -2.103 -7.736 -2.103 -14.663
          V68.744
          h18.957
          v81.833
          c.443 2.796 1.636 3.823 4.043 3.823
          3.63 0 6.913 -3.153 10.93 -8.817
          V68.744
          h18.96
          v100.793
          Z
        "
      />
      <path
        d="
          M102.109 139.597
          c.996 9.98 -2.1 14.93 -7.987 14.93
          s-8.98 -4.95 -7.98 -14.93
          v-39.92
          c-1 -9.98 2.093 -14.657 7.98 -14.657
          5.89 0 8.993 4.677 7.996 14.657
          l-.01 39.92
          Z

          m18.96 -37.923
          c0 -10.77 -2.164 -18.86 -5.987 -23.95
          -5.054 -6.897 -12.973 -9.72 -20.96 -9.72
          -9.033 0 -15.913 2.823 -20.957 9.72
          -3.886 5.09 -5.97 13.266 -5.97 24.036
          l-.016 35.84
          c0 10.71 1.853 18.11 5.736 23.153
          5.047 6.873 13.227 10.513 21.207 10.513
          7.986 0 16.306 -3.64 21.36 -10.513
          3.823 -5.043 5.586 -12.443 5.586 -23.153
          v-35.926
          Z
        "
      />
      <path
        d="
          M46.223 114.647
          v54.889
          h-19.96
          v-54.89
          S5.582 47.358 1.314 34.815
          H22.27
          L36.277 87.38
          l13.936 -52.566
          H71.17
          l-24.947 79.833
          Z
        "
      />
    </g>

    <!-- White shapes (right text/logo) -->
    <g fill="#fff">
      <path
        d="
          M440.413 96.647
          c0 -9.33 2.557 -11.874 8.59 -11.874
          5.99 0 8.374 2.777 8.374 11.997
          v10.893
          l-16.964 .02
          V96.647
          Z

          m35.96 25.986
          l-.003 -20.4
          c0 -10.656 -2.1 -18.456 -5.88 -23.5
          -5.06 -6.823 -12.253 -10.436 -21.317 -10.436
          -9.226 0 -16.42 3.613 -21.643 10.436
          -3.84 5.044 -6.076 13.28 -6.076 23.943
          v34.927
          c0 10.596 2.46 18.013 6.296 23.003
          5.227 6.813 12.42 10.216 21.87 10.216
          9.44 0 16.853 -3.566 21.85 -10.81
          2.2 -3.196 3.616 -6.82 4.226 -10.823
          .164 -1.81 .64 -5.933 .64 -11.753
          v-2.827
          h-18.96
          c0 7.247 .037 11.557 -.133 12.54
          -1.033 4.834 -3.623 7.25 -8.07 7.25
          -6.203 0 -8.826 -4.636 -8.76 -13.843
          v-17.923
          h35.96
          Z

          M390.513 140.597
          c0 9.98 -2.353 13.806 -7.563 13.806
          -2.973 0 -6.4 -1.53 -9.423 -4.553
          l.02 -60.523
          c3.02 -2.98 6.43 -4.55 9.403 -4.55
          5.21 0 7.563 2.93 7.563 12.91
          v42.91
          Z

          m2.104 -72.453
          c-6.647 0 -13.253 4.087 -19.09 11.27
          l.02 -43.603
          h-17.963
          V169.54
          h17.963
          l.027 -10.05
          c6.036 7.47 12.62 11.333 19.043 11.333
          7.193 0 12.45 -3.85 14.863 -11.267
          1.203 -4.226 1.993 -10.733 1.993 -19.956
          V99.684
          c0 -9.447 -1.21 -15.907 -2.416 -19.917
          -2.41 -7.466 -7.247 -11.623 -14.44 -11.623
          Z

          M340.618 169.537
          h-18.956
          V158.56
          c-7.193 8.24 -13.283 12.4 -19.926 12.4
          -5.827 0 -9.877 -2.747 -11.9 -7.717
          -1.234 -3.02 -2.107 -7.736 -2.107 -14.663
          V69.744
          h18.96
          v80.833
          c.443 2.796 1.633 3.823 4.043 3.823
          3.63 0 6.913 -3.153 10.93 -8.817
          V69.744
          h18.957
          v99.793
          Z
        "
      />
      <path
        d="
          M268.763 169.537
          h-19.956
          V54.77
          h-20.956
          V35.835
          l62.869 -.024
          v18.96
          h-21.957
          v114.766
          Z
        "
      />
    </g>
  </g>
</svg>
