<?xml version="1.0"?>
<svg
  xmlns="http://www.w3.org/2000/svg"
  viewBox="0 0 24 24"
  width="192px"
  height="192px"
>
  <path
    d="
      M10.9 2.1
      c-4.6 0.5 -8.3 4.2 -8.8 8.7
      c-0.5 4.7 2.2 8.9 6.3 10.5
      C8.7 21.4 9 21.2 9 20.8
      v-1.6
      c0 0 -0.4 0.1 -0.9 0.1
      c-1.4 0 -2 -1.2 -2.1 -1.9
      c-0.1 -0.4 -0.3 -0.7 -0.6 -1
      C5.1 16.3 5 16.3 5 16.2
      C5 16 5.3 16 5.4 16
      c0.6 0 1.1 0.7 1.3 1
      c0.5 0.8 1.1 1 1.4 1
      c0.4 0 0.7 -0.1 0.9 -0.2
      c0.1 -0.7 0.4 -1.4 1 -1.8
      c-2.3 -0.5 -4 -1.8 -4 -4
      c0 -1.1 0.5 -2.2 1.2 -3
      C7.1 8.8 7 8.3 7 7.6
      C7 7.2 7 6.6 7.3 6
      c0 0 1.4 0 2.8 1.3
      C10.6 7.1 11.3 7 12 7
      s1.4 0.1 2 0.3
      C15.3 6 16.8 6 16.8 6
      C17 6.6 17 7.2 17 7.6
      c0 0.8 -0.1 1.2 -0.2 1.4
      c0.7 0.8 1.2 1.8 1.2 3
      c0 2.2 -1.7 3.5 -4 4
      c0.6 0.5 1 1.4 1 2.3
      v2.6
      c0 0.3 0.3 0.6 0.7 0.5
      c3.7 -1.5 6.3 -5.1 6.3 -9.3
      C22 6.1 16.9 1.4 10.9 2.1
      z
    "
    fill="#fafbfc"
  />
</svg>
