<?xml version="1.0" encoding="UTF-8" standalone="no"?>
<!-- Created with Inkscape (http://www.inkscape.org/) -->

<svg
   xmlns:dc="http://purl.org/dc/elements/1.1/"
   xmlns:cc="http://creativecommons.org/ns#"
   xmlns:rdf="http://www.w3.org/1999/02/22-rdf-syntax-ns#"
   xmlns:svg="http://www.w3.org/2000/svg"
   xmlns="http://www.w3.org/2000/svg"
   xmlns:sodipodi="http://sodipodi.sourceforge.net/DTD/sodipodi-0.dtd"
   xmlns:inkscape="http://www.inkscape.org/namespaces/inkscape"
   width="400"
   height="180"
   viewBox="0 0 105.83333 47.625003"
   version="1.1"
   id="svg8"
   inkscape:version="0.92.4 (5da689c313, 2019-01-14)"
   sodipodi:docname="Homebew Logo Vector.svg">
  <defs
     id="defs2" />
  <sodipodi:namedview
     id="base"
     pagecolor="#ffffff"
     bordercolor="#666666"
     borderopacity="1.0"
     inkscape:pageopacity="0.0"
     inkscape:pageshadow="2"
     inkscape:zoom="1.979899"
     inkscape:cx="176.1062"
     inkscape:cy="105.98403"
     inkscape:document-units="mm"
     inkscape:current-layer="layer1"
     showgrid="false"
     units="px"
     showguides="false"
     inkscape:window-width="1366"
     inkscape:window-height="703"
     inkscape:window-x="0"
     inkscape:window-y="0"
     inkscape:window-maximized="1" />
  <metadata
     id="metadata5">
    <rdf:RDF>
      <cc:Work
         rdf:about="">
        <dc:format>image/svg+xml</dc:format>
        <dc:type
           rdf:resource="http://purl.org/dc/dcmitype/StillImage" />
        <dc:title></dc:title>
      </cc:Work>
    </rdf:RDF>
  </metadata>
  <g
     inkscape:label="Layer 1"
     inkscape:groupmode="layer"
     id="layer1"
     transform="translate(0,-249.37498)">
    <path
       style="fill:#ffffff;stroke-width:0.26592243"
       d="m 33.909627,295.09832 c -1.179677,-0.72126 -1.437684,-1.13938 -1.751905,-2.83918 -0.446021,-2.41275 0.01888,-4.54289 1.237781,-5.67153 0.96048,-0.88934 0.962224,-0.88975 3.317308,-0.79776 2.498327,0.0976 3.076253,0.35902 2.789682,1.26192 -0.158973,0.50088 -0.379583,0.55862 -2.134494,0.55862 -1.79766,0 -2.002123,0.0571 -2.508343,0.70067 -0.427399,0.54334 -0.551145,1.08343 -0.551145,2.40538 0,1.47993 0.09088,1.79561 0.689238,2.39397 0.644601,0.6446 0.806503,0.67941 2.499873,0.53743 1.698957,-0.14242 1.820239,-0.11598 1.966352,0.42885 0.236555,0.88205 0.222984,0.90658 -0.674464,1.21944 -1.346527,0.4694 -3.962007,0.36338 -4.879883,-0.19781 z m 6.375529,0.16952 c -0.07476,-0.1948 -0.103846,-3.34365 -0.06466,-6.99744 l 0.07126,-6.64327 0.997208,-0.0826 0.99721,-0.0826 v 2.54232 c 0,1.39827 0.06368,2.54232 0.141502,2.54232 0.07783,0 0.5711,-0.17951 1.096164,-0.3989 1.21588,-0.50802 3.266992,-0.51347 3.984965,-0.0105 0.987759,0.69185 1.179664,1.66848 1.100915,5.60259 l -0.07437,3.71528 -0.997208,0.0826 -0.99721,0.0826 -0.0039,-3.2736 c -0.0056,-4.62211 -0.504502,-5.32517 -3.080976,-4.3412 l -1.154692,0.44098 -0.07406,3.50437 -0.07408,3.50438 -0.866077,0.0835 c -0.54045,0.052 -0.917174,-0.0497 -1.001987,-0.27072 z m 10.099572,-0.33249 c -0.529513,-0.52952 -0.652719,-0.91991 -0.652719,-2.06822 0,-2.44031 1.231707,-3.39529 4.379179,-3.39529 1.651702,0 1.737036,-0.031 1.737036,-0.63224 0,-1.05925 -0.674616,-1.36217 -3.033509,-1.36217 -2.028762,0 -2.156839,-0.0343 -2.236897,-0.5979 -0.118812,-0.83652 0.812289,-1.1306 3.579679,-1.1306 2.14718,0 2.303426,0.04 3.040793,0.77732 0.769172,0.76916 0.777312,0.80939 0.777312,3.84079 0,2.80243 0.04719,3.09654 0.553763,3.45135 0.356665,0.24982 0.522295,0.61012 0.465361,1.01228 -0.123417,0.87184 -1.806188,1.03402 -2.590525,0.24967 -0.535579,-0.53557 -0.543173,-0.53566 -1.677165,-0.021 -1.659939,0.75339 -3.517967,0.70032 -4.342308,-0.12402 z m 4.678937,-1.61446 c 0.640403,-0.33116 0.784559,-0.57547 0.784559,-1.32961 v -0.9239 h -1.4034 c -1.711535,0 -2.585432,0.52942 -2.585432,1.56629 0,0.4061 0.07977,0.81815 0.177282,0.91565 0.325977,0.32599 2.233201,0.18205 3.026991,-0.22843 z m 4.625404,1.925 c -0.07222,-0.18819 -0.09838,-2.37208 -0.05815,-4.85308 l 0.07317,-4.51092 0.997212,-0.0826 c 0.761536,-0.063 0.997206,0.0156 0.997206,0.3324 0,0.51618 0.218694,0.51865 1.421558,0.0161 1.410375,-0.5893 3.399198,-0.52138 4.109452,0.14032 0.810876,0.75544 0.881041,1.23615 0.794624,5.44404 l -0.07645,3.72292 h -0.930733 -0.930727 l -0.132959,-3.48398 c -0.173938,-4.55759 -0.541328,-5.00863 -3.12459,-3.83605 l -1.130172,0.513 v 3.47 3.46999 h -0.939072 c -0.520242,0 -0.997634,-0.15261 -1.070375,-0.34217 z m 9.583767,-0.25616 c -0.08116,-0.32907 -0.113357,-2.51296 -0.07156,-4.85308 l 0.07602,-4.25476 0.91899,-0.0874 c 0.61121,-0.0582 1.022171,0.0537 1.227065,0.3339 0.27738,0.37934 0.403551,0.38143 1.266328,0.0209 1.413584,-0.59064 3.40211,-0.52351 4.113045,0.13882 0.810871,0.75545 0.881041,1.23615 0.794625,5.44405 l -0.07646,3.72292 h -0.930727 -0.930728 l -0.07484,-3.44529 c -0.09748,-4.48782 -0.464507,-4.97733 -2.977891,-3.97167 l -1.069071,0.42776 v 3.14045 c 0,1.72724 -0.07264,3.32973 -0.161414,3.56107 -0.103052,0.26856 -0.485797,0.42064 -1.058621,0.42064 -0.709436,0 -0.928098,-0.12523 -1.044777,-0.59833 z m 11.705056,0.36048 c -1.405002,-0.623 -2.260342,-2.32422 -2.260342,-4.49572 0,-1.96744 0.5135,-3.43883 1.503454,-4.30801 0.810412,-0.71156 1.095162,-0.79755 2.640808,-0.79755 2.765615,0 3.797929,0.82436 4.220861,3.3706 0.332884,2.00411 0.03085,2.21378 -3.188986,2.21378 h -2.78283 v 0.66479 c 0,0.36565 0.254114,0.91893 0.564706,1.22952 0.502227,0.50223 0.784255,0.55062 2.54906,0.43735 1.832085,-0.11757 2.000989,-0.0843 2.201076,0.43251 0.374945,0.96862 -0.285384,1.31038 -2.71227,1.40375 -1.212031,0.0467 -2.44302,-0.0213 -2.735537,-0.15102 z m 3.855874,-6.15637 c 0,-0.6857 -1.141103,-1.84937 -1.813505,-1.84937 -0.794203,0 -1.909404,1.02081 -1.909404,1.7478 0,0.6219 0.06802,0.6455 1.861455,0.6455 1.697967,0 1.861454,-0.0478 1.861454,-0.54393 z m 4.141194,5.97674 c -0.659502,-0.6595 -0.705881,-1.21936 -0.626321,-7.56019 l 0.07509,-5.98326 0.997206,-0.0826 0.997207,-0.0826 v 5.57868 c 0,3.06827 0.07615,5.77712 0.169229,6.01967 0.09308,0.24255 0.452075,0.54854 0.797769,0.67998 0.675325,0.25675 0.827837,1.01015 0.309435,1.52855 -0.457806,0.45781 -2.227444,0.3938 -2.719609,-0.0983 z M 16.550354,279.6161 c -1.413057,-0.27845 -2.589828,-1.09511 -3.16753,-2.19821 -0.554684,-1.05914 -0.776543,-4.71131 -0.376238,-6.19349 0.616477,-2.2826 2.426973,-3.54184 5.107455,-3.55235 1.832909,-0.007 3.061838,0.38422 4.06127,1.29347 1.160401,1.0557 1.497002,2.1266 1.490462,4.74188 -0.0094,3.78486 -1.081912,5.37513 -3.997806,5.92812 -1.546376,0.29327 -1.530399,0.29336 -3.117613,-0.0194 z m 2.866501,-3.44038 c 0.436385,-0.43638 0.531844,-0.8864 0.531844,-2.50727 0,-2.27744 -0.328918,-2.81118 -1.732411,-2.81118 -1.289755,0 -1.72458,0.75246 -1.72458,2.98432 0,2.01879 0.510949,2.86598 1.728496,2.86598 0.365644,0 0.904136,-0.23933 1.196651,-0.53185 z m 28.093629,3.42869 c -2.560176,-0.60153 -3.617088,-2.30272 -3.617088,-5.82199 0,-4.44126 1.918287,-6.37564 5.997852,-6.04817 2.138926,0.17169 3.26973,0.82316 4.029042,2.32121 0.661151,1.30439 0.818003,3.66683 0.279214,4.20562 -0.212134,0.21214 -1.370977,0.31911 -3.456986,0.31911 -2.960605,0 -3.137887,0.03 -3.137887,0.53184 0,0.29252 0.252047,0.78389 0.560107,1.09195 0.503873,0.50388 0.802911,0.55059 2.978702,0.46537 l 2.4186,-0.0948 0.218726,1.04783 c 0.286125,1.37072 -0.01423,1.64458 -2.187297,1.99413 -1.999426,0.32164 -2.670852,0.31964 -4.082985,-0.0122 z m 3.285216,-7.56797 c 0,-0.96301 -0.532268,-1.44509 -1.595536,-1.44509 -0.760978,0 -1.119792,0.13979 -1.320256,0.51436 -0.599487,1.12015 -0.377067,1.34709 1.320256,1.34709 1.270749,0 1.595536,-0.0848 1.595536,-0.41636 z m 7.605632,7.58449 c -0.862782,-0.1347 -1.85002,-0.42925 -2.193863,-0.65454 l -0.625168,-0.40962 v -7.85074 -7.85073 l 1.794976,0.0786 1.79498,0.0786 0.07598,2.42361 0.07599,2.42359 1.830342,-0.13096 c 1.498563,-0.10722 2.040177,-0.0293 2.987935,0.42941 1.629968,0.78906 2.15329,1.8098 2.293046,4.47263 0.205835,3.92159 -0.396614,5.5961 -2.382894,6.62324 -0.986708,0.51026 -3.632721,0.68202 -5.651314,0.36685 z m 3.892793,-3.72384 c 0.61501,-0.7595 0.649549,-3.59871 0.05412,-4.4488 -0.332846,-0.4752 -0.671548,-0.59102 -1.728497,-0.59102 h -1.314531 v 2.74787 c 0,1.51133 0.08975,2.83879 0.199443,2.94992 0.382284,0.38729 2.311566,-0.0678 2.789465,-0.65797 z m 18.015136,3.7704 c -1.44584,-0.30417 -2.5467,-1.0802 -3.221792,-2.27117 -0.524102,-0.92459 -0.617116,-1.4665 -0.620498,-3.61499 -0.0038,-2.27561 0.0682,-2.65051 0.720661,-3.76385 0.939419,-1.60301 2.408302,-2.35128 4.615641,-2.35128 3.018268,0 4.953437,1.59522 5.299986,4.36891 0.304905,2.44033 0.150911,2.54508 -3.741417,2.54508 -3.674458,0 -3.967895,0.16873 -2.626412,1.51021 0.6612,0.6612 0.780597,0.683 3.03615,0.55439 2.582287,-0.14723 2.644919,-0.10677 2.654092,1.71455 0.0033,0.61048 -0.149264,0.76118 -0.993581,0.98283 -1.469912,0.38589 -4.054641,0.55004 -5.12283,0.32532 z m 3.030023,-7.42897 c 0.07284,-0.11786 -0.01256,-0.50678 -0.189809,-0.86425 -0.225913,-0.45564 -0.584006,-0.67525 -1.19781,-0.73458 -1.050599,-0.10155 -1.638578,0.3222 -1.638578,1.18088 0,0.58824 0.100694,0.63223 1.446879,0.63223 0.795783,0 1.506475,-0.0964 1.579318,-0.21428 z m -82.67745751,7.07166 c -0.073466,-0.19145 -0.10183307,-3.93673 -0.0630384,-8.32285 l 0.0705359,-7.97477 H 2.3978197 4.1263154 l 0.075783,2.72571 c 0.041683,1.49914 0.1766482,2.7257 0.2999273,2.7257 0.1232791,0 0.6537421,-0.1795 1.1788069,-0.39888 1.2015714,-0.50205 2.8487572,-0.51064 4.0207325,-0.0209 1.5466329,0.64623 1.8148089,1.54617 1.9497689,6.54303 0.138126,5.11401 0.134462,5.12264 -2.1185036,4.99372 l -1.4176799,-0.0811 -0.074113,-3.84337 c -0.093799,-4.86445 -0.4523226,-5.41961 -2.8523716,-4.41681 l -0.9149838,0.38231 -0.073685,3.93894 -0.073684,3.93893 -1.6654577,0.0793 c -1.1863337,0.0565 -1.70388408,-0.0209 -1.79903119,-0.26883 z m 24.52828251,0.15685 c -0.103886,-0.10388 -0.188884,-2.74173 -0.188884,-5.86189 v -5.67301 h 1.728496 c 1.359159,0 1.728496,0.0852 1.728496,0.39888 0,0.50163 -0.04531,0.50665 1.468495,-0.16297 1.636133,-0.72375 3.567804,-0.59368 4.523982,0.3046 l 0.656671,0.61691 1.246636,-0.6226 c 1.640715,-0.81941 3.464461,-0.99041 4.554031,-0.42696 1.50432,0.77791 1.664903,1.46115 1.583732,6.73832 l -0.07262,4.72144 h -1.595539 -1.595534 l -0.132962,-3.85588 c -0.07313,-2.12072 -0.229773,-4.00545 -0.348097,-4.18827 -0.269294,-0.41608 -1.53963,-0.4302 -2.424694,-0.027 -0.666769,0.3038 -0.670838,0.3267 -0.743798,4.18827 l -0.07336,3.88281 h -1.728496 -1.728495 l -0.07407,-3.83778 c -0.04393,-2.27598 -0.192454,-3.98041 -0.364963,-4.18827 -0.353671,-0.42615 -1.195172,-0.44841 -2.306489,-0.061 l -0.830475,0.28951 -0.07345,3.89877 -0.07346,3.89877 -1.47313,0.0781 c -0.810223,0.0429 -1.558131,-0.007 -1.662017,-0.11081 z m 43.01437,-0.16112 c -0.07436,-0.1938 -0.102734,-2.80226 -0.06304,-5.79659 l 0.07217,-5.44423 h 1.728496 c 1.590056,0 1.735305,0.0479 1.813474,0.59833 0.09799,0.68997 0.378814,0.76206 0.833661,0.21401 0.426351,-0.51373 2.930189,-1.33008 3.193088,-1.04109 0.114449,0.12581 0.283684,0.91208 0.376086,1.74726 l 0.168001,1.51851 -0.998295,0.26233 c -0.54906,0.14428 -1.563412,0.40173 -2.254112,0.57212 l -1.255824,0.30978 -0.0738,3.6267 -0.07379,3.62671 -1.665453,0.0793 c -1.195958,0.0569 -1.703575,-0.02 -1.800675,-0.2731 z m 23.084373,0.006 c -0.296111,-0.36682 -3.795862,-10.5874 -3.795862,-11.08534 0,-0.18573 0.642156,-0.29485 1.735082,-0.29485 2.018085,0 1.809599,-0.28564 2.927009,4.01017 0.396408,1.52397 0.814778,2.87339 0.929715,2.99872 0.114932,0.12532 0.522175,-0.79898 0.904984,-2.05402 0.654829,-2.14685 0.672028,-2.33927 0.290682,-3.25196 -0.683395,-1.63559 -0.60666,-1.738 1.235577,-1.64912 l 1.640908,0.0792 0.472424,1.46257 c 0.259847,0.80442 0.73167,2.3365 1.048522,3.40464 0.316842,1.06814 0.631189,1.88696 0.698542,1.8196 0.0674,-0.0674 0.502527,-1.59945 0.967025,-3.40464 l 0.84454,-3.28217 1.56782,-0.0809 c 0.8623,-0.0445 1.66446,0.0158 1.78259,0.13387 0.18306,0.18306 -2.89561,10.51288 -3.35454,11.25544 -0.0881,0.14257 -0.80856,0.25923 -1.600964,0.25923 -1.657846,0 -1.884517,-0.22727 -2.652224,-2.65922 -0.253939,-0.80442 -0.542462,-1.55207 -0.641177,-1.66144 -0.09873,-0.10938 -0.533522,0.78811 -0.966267,1.99441 l -0.786795,2.19329 -1.484784,0.0785 c -0.978167,0.0516 -1.579648,-0.039 -1.762807,-0.26591 z M 21.505397,264.26094 c -1.420648,-0.16498 -1.680552,-0.83558 -1.782844,-4.60005 -0.09284,-3.41653 -0.09557,-3.42934 -0.731287,-3.42934 -0.530813,0 -0.638101,-0.13329 -0.638101,-0.79271 0,-0.62376 0.141674,-0.82826 0.664805,-0.95956 0.564462,-0.14166 0.664807,-0.32068 0.664807,-1.18602 0,-1.13294 0.03832,-1.1766 1.263131,-1.43929 l 0.864248,-0.18537 v 1.35074 1.35075 l 0.997209,0.004 c 1.288084,0.005 1.730065,0.30278 1.618801,1.08969 -0.07824,0.55332 -0.251772,0.64513 -1.352878,0.71579 l -1.263132,0.0811 v 2.62565 c 0,3.11866 0.239961,3.5358 1.961159,3.40917 0.978843,-0.0721 1.106532,-0.013 1.185945,0.54828 0.04895,0.34595 -0.03495,0.75295 -0.186444,0.90443 -0.324915,0.32492 -2.26262,0.62917 -3.265419,0.51271 z m 16.333247,-0.044 c -2.177929,-0.51728 -2.998289,-1.82903 -2.998289,-4.79426 0,-2.11301 0.397328,-3.28377 1.441251,-4.2468 0.999203,-0.92176 3.868911,-1.08955 5.127419,-0.2998 1.199267,0.75258 1.718368,1.89269 1.621897,3.5622 l -0.07993,1.38328 -3.018206,0.0754 -3.018209,0.0754 0.180261,0.72233 c 0.353335,1.41588 0.817948,1.65305 3.238145,1.65305 2.195586,0 2.219126,0.007 2.219126,0.67139 0,0.45334 -0.194329,0.74335 -0.598326,0.89294 -0.971537,0.35973 -3.191524,0.52416 -4.115136,0.30479 z m 2.999237,-6.58924 c -0.226515,-0.93934 -0.838225,-1.39713 -1.860073,-1.39202 -1.08468,0.005 -1.441007,0.26855 -1.730448,1.27777 l -0.2425,0.84554 h 2.004683 2.004685 z m -15.570733,-0.3324 v -6.91399 h 1.063689 1.06369 v 2.3933 c 0,1.31632 0.10505,2.3933 0.233448,2.3933 0.128395,0 0.693387,-0.19218 1.25554,-0.42705 1.393947,-0.58243 3.496303,-0.37882 4.126684,0.39967 0.59672,0.73692 0.819542,2.6485 0.716124,6.1436 l -0.08262,2.79219 h -1.063689 -1.06369 l -0.07404,-3.66559 c -0.07202,-3.5652 -0.0913,-3.67345 -0.704231,-3.95271 -0.483559,-0.22032 -0.945852,-0.18229 -1.986856,0.16348 l -1.356667,0.45062 v 3.56857 3.56859 h -1.06369 -1.063689 z"
       id="path87"
       inkscape:connector-curvature="0" />
  </g>
</svg>
