<svg
  role="img"
  id="Wii--Streamline-Simple-Icons"
  xmlns="http://www.w3.org/2000/svg"
  viewBox="0 0 24 24"
  width="24"
  height="24"
>
  <desc>
    Wii Streamline Icon: https://streamlinehq.com
  </desc>
  <title>Wii</title>
  <path
    d="
      M17.904 6.261
      c-0.729 -0.014 -1.33 0.565 -1.344 1.293
      v0.018
      c0.012 0.732 0.612 1.315 1.344 1.305
      c0.783 0 1.404 -0.579 1.404 -1.305
      c0.001 -0.732 -0.62 -1.311 -1.404 -1.311
      Z

      m4.71 0
      c-0.747 0 -1.36 0.58 -1.36 1.311
      c0 0.711 0.613 1.305 1.361 1.305
      c0.767 0 1.385 -0.579 1.385 -1.305
      c0 -0.732 -0.618 -1.311 -1.386 -1.311
      Z

      m-14.84 0.543
      c-0.748 0 -1.252 0.374 -1.514 1.215
      c-0.242 0.857 -1.794 6.822 -1.794 6.822
      L2.43 6.897
      H0
      s2.334 8.464 2.652 9.456
      c0.241 0.765 0.84 1.386 1.7 1.386
      c1.009 0 1.479 -0.732 1.684 -1.386
      c0.225 -0.676 1.738 -6.261 1.738 -6.261
      s1.515 5.589 1.719 6.261
      c0.225 0.653 0.69 1.386 1.682 1.386
      c0.879 0 1.456 -0.621 1.72 -1.386
      c0.315 -0.99 2.657 -9.456 2.657 -9.456
      h-2.45
      l-2.021 7.944
      s-1.55 -5.965 -1.812 -6.822
      c-0.242 -0.844 -0.77 -1.215 -1.495 -1.215
      Z

      m9.008 3.363
      v7.495
      h2.322
      v-7.495
      h-2.322
      Z

      m4.693 0
      v7.495
      h2.317
      v-7.495
      h-2.317
      Z
    "
    fill="#31c1ed"
    stroke-width="1"
  />
</svg>
